<svg width="22" height="21" viewBox="0 0 22 21" fill="none" xmlns="http://www.w3.org/2000/svg">
<path d="M0 21V2.1C0 1.5225 0.2156 1.02795 0.6468 0.61635C1.07727 0.20545 1.595 0 2.2 0H19.8C20.405 0 20.9231 0.20545 21.3543 0.61635C21.7848 1.02795 22 1.5225 22 2.1V14.7C22 15.2775 21.7848 15.772 21.3543 16.1836C20.9231 16.5945 20.405 16.8 19.8 16.8H4.4L0 21ZM2.2 15.9337L3.4925 14.7H19.8V2.1H2.2V15.9337Z" fill="#E3E5E9"/>
<path d="M7.57955 12.1364C6.96591 12.1364 6.4375 11.9915 5.99432 11.7017C5.55114 11.4119 5.21023 11.0128 4.97159 10.5043C4.73295 9.99574 4.61364 9.41477 4.61364 8.76136C4.61364 8.09659 4.7358 7.50994 4.98011 7.00142C5.22727 6.49006 5.57102 6.09091 6.01136 5.80398C6.45455 5.5142 6.97159 5.36932 7.5625 5.36932C8.02273 5.36932 8.4375 5.45455 8.80682 5.625C9.17614 5.79545 9.47869 6.03409 9.71449 6.34091C9.95028 6.64773 10.0966 7.00568 10.1534 7.41477H9.14773C9.07102 7.11648 8.90057 6.85227 8.63636 6.62216C8.375 6.3892 8.02273 6.27273 7.57955 6.27273C7.1875 6.27273 6.84375 6.375 6.5483 6.57955C6.25568 6.78125 6.02699 7.06676 5.86222 7.43608C5.70028 7.80256 5.61932 8.23295 5.61932 8.72727C5.61932 9.23295 5.69886 9.6733 5.85795 10.0483C6.01989 10.4233 6.24716 10.7145 6.53977 10.9219C6.83523 11.1293 7.18182 11.233 7.57955 11.233C7.84091 11.233 8.07812 11.1875 8.29119 11.0966C8.50426 11.0057 8.68466 10.875 8.83239 10.7045C8.98011 10.5341 9.08523 10.3295 9.14773 10.0909H10.1534C10.0966 10.4773 9.95597 10.8253 9.73153 11.1349C9.50994 11.4418 9.21591 11.6861 8.84943 11.8679C8.4858 12.0469 8.0625 12.1364 7.57955 12.1364ZM14.2827 12.1364C13.669 12.1364 13.1406 11.9915 12.6974 11.7017C12.2543 11.4119 11.9134 11.0128 11.6747 10.5043C11.4361 9.99574 11.3168 9.41477 11.3168 8.76136C11.3168 8.09659 11.4389 7.50994 11.6832 7.00142C11.9304 6.49006 12.2741 6.09091 12.7145 5.80398C13.1577 5.5142 13.6747 5.36932 14.2656 5.36932C14.7259 5.36932 15.1406 5.45455 15.5099 5.625C15.8793 5.79545 16.1818 6.03409 16.4176 6.34091C16.6534 6.64773 16.7997 7.00568 16.8565 7.41477H15.8509C15.7741 7.11648 15.6037 6.85227 15.3395 6.62216C15.0781 6.3892 14.7259 6.27273 14.2827 6.27273C13.8906 6.27273 13.5469 6.375 13.2514 6.57955C12.9588 6.78125 12.7301 7.06676 12.5653 7.43608C12.4034 7.80256 12.3224 8.23295 12.3224 8.72727C12.3224 9.23295 12.402 9.6733 12.5611 10.0483C12.723 10.4233 12.9503 10.7145 13.2429 10.9219C13.5384 11.1293 13.8849 11.233 14.2827 11.233C14.544 11.233 14.7812 11.1875 14.9943 11.0966C15.2074 11.0057 15.3878 10.875 15.5355 10.7045C15.6832 10.5341 15.7884 10.3295 15.8509 10.0909H16.8565C16.7997 10.4773 16.6591 10.8253 16.4347 11.1349C16.2131 11.4418 15.919 11.6861 15.5526 11.8679C15.1889 12.0469 14.7656 12.1364 14.2827 12.1364Z" fill="#E3E5E9"/>
</svg>
